<?xml version="1.0" standalone="no"?>
<!DOCTYPE svg PUBLIC "-//W3C//DTD SVG 20010904//EN"
 "http://www.w3.org/TR/2001/REC-SVG-20010904/DTD/svg10.dtd">
<svg version="1.0" xmlns="http://www.w3.org/2000/svg"
 width="2388.000000pt" height="1668.000000pt" viewBox="0 0 2388.000000 1668.000000"
 preserveAspectRatio="xMidYMid meet">

<g transform="translate(0.000000,1668.000000) scale(0.100000,-0.100000)"
fill="#000000" stroke="none">
<path d="M0 8340 l0 -8340 11940 0 11940 0 0 8340 0 8340 -11940 0 -11940 0 0
-8340z m22244 2615 c231 -31 428 -61 438 -66 24 -13 58 -68 58 -95 0 -11 -9
-45 -19 -75 -11 -30 -76 -216 -145 -414 -139 -398 -143 -405 -219 -405 -49 0
-81 19 -103 62 -21 40 -20 43 77 323 45 130 80 238 78 240 -3 2 -326 -186
-719 -417 -393 -231 -1144 -672 -1668 -979 -524 -308 -968 -567 -988 -575 -27
-11 -43 -13 -65 -5 -16 6 -273 146 -571 313 -298 166 -549 302 -558 302 -8 0
-217 -134 -464 -297 -482 -319 -481 -319 -547 -280 -16 10 -38 36 -48 58 -11
22 -112 282 -227 578 -114 296 -211 536 -215 535 -8 -3 -133 -136 -1233 -1313
-319 -341 -620 -663 -670 -715 -249 -262 -534 -557 -844 -873 l-343 -349 34
-42 c18 -22 222 -275 452 -561 448 -556 540 -667 604 -730 23 -21 41 -43 41
-47 0 -4 -80 -8 -177 -8 l-178 0 -60 90 c-33 49 -246 324 -474 611 l-414 521
-184 -184 -185 -185 11 -389 c6 -214 14 -408 19 -431 5 -23 7 -45 4 -48 -3 -3
-70 -5 -150 -5 -134 0 -144 1 -136 17 22 49 7 2131 -17 2296 -6 43 -9 80 -8
82 2 2 69 6 148 10 l144 8 -8 -29 c-11 -45 -17 -691 -8 -959 l8 -240 250 257
c138 142 333 341 435 441 392 389 449 446 576 582 985 1056 2339 2497 2353
2505 33 17 96 12 124 -10 27 -21 38 -47 331 -805 86 -220 159 -399 165 -398 5
1 194 124 421 274 227 149 425 275 441 279 16 5 39 5 51 2 13 -4 269 -144 568
-312 300 -167 554 -304 565 -304 11 0 508 287 1105 638 597 351 1331 783 1632
960 397 232 543 323 530 328 -9 4 -127 21 -262 39 -135 17 -256 37 -270 44
-46 24 -67 88 -46 138 18 45 51 67 101 67 23 0 229 -25 459 -55z m-17147 -602
c8 -20 18 -1 -334 -632 l-264 -474 34 -56 c59 -96 370 -662 366 -665 -9 -9
-262 -146 -264 -144 -6 8 -153 283 -219 411 -42 81 -80 147 -84 147 -4 0 -67
-109 -141 -243 -74 -133 -174 -312 -221 -397 -208 -370 -1062 -1899 -1446
-2592 -85 -152 -154 -281 -154 -287 0 -8 263 -10 952 -9 l951 3 38 75 c21 41
77 158 125 260 48 102 111 236 141 298 30 62 53 120 51 129 -3 15 -66 59 -518
368 -102 70 -239 163 -305 209 -66 45 -169 115 -230 156 -60 41 -116 81 -125
87 -8 7 -23 18 -33 26 -17 11 -12 23 68 162 47 83 88 150 93 150 6 0 550 -406
1360 -1013 61 -46 112 -87 112 -91 0 -4 -61 -145 -136 -312 -75 -167 -173
-389 -219 -494 -46 -104 -94 -215 -109 -246 l-25 -56 -98 -6 c-54 -4 -587 -7
-1184 -7 l-1086 0 -158 -282 c-265 -473 -292 -515 -316 -491 -19 19 2 62 210
438 l200 360 -33 60 c-158 286 -427 787 -424 790 8 7 269 135 276 135 9 0 32
-41 212 -375 159 -295 150 -280 165 -258 13 18 551 980 827 1478 83 149 181
324 218 390 37 66 114 203 170 305 203 366 460 829 584 1052 69 124 126 230
126 235 0 4 -384 10 -853 12 l-854 3 -156 -274 c-86 -151 -163 -281 -172 -288
-8 -7 -15 -20 -15 -30 0 -19 -11 -11 435 -338 176 -130 407 -300 513 -379
l193 -144 -26 -47 c-106 -190 -151 -262 -163 -257 -7 3 -291 195 -630 427
-748 511 -814 557 -820 562 -3 4 76 141 323 561 49 83 133 227 187 320 55 94
102 173 106 177 4 4 479 8 1056 9 984 3 1051 4 1065 20 8 10 51 85 96 166 113
206 429 774 477 856 40 69 71 87 85 50z m17613 -2823 c-2 -14 -3 -407 -2 -875
2 -768 14 -1348 29 -1462 l5 -43 -170 0 -170 0 -43 78 c-52 96 -101 169 -694
1037 -263 385 -514 761 -557 835 l-80 135 6 -65 c9 -87 25 -925 26 -1335 0
-308 10 -545 26 -657 l7 -48 -147 0 -147 0 8 48 c19 112 -4 2197 -26 2302 -5
25 -8 46 -7 47 1 1 74 5 162 9 l161 7 43 -79 c55 -100 102 -170 641 -959 548
-801 536 -782 632 -940 l79 -130 -6 85 c-11 137 -25 777 -26 1145 -1 339 -14
748 -26 837 l-7 47 129 4 c171 4 160 6 154 -23z m-11405 -24 c175 -36 332
-117 454 -236 90 -88 128 -140 186 -259 68 -137 73 -123 -57 -161 -62 -18
-119 -33 -126 -34 -6 -1 -28 35 -47 79 -65 148 -154 250 -281 321 -180 101
-436 118 -652 45 -301 -104 -493 -375 -543 -767 -18 -147 -6 -401 25 -537 55
-236 172 -429 331 -547 238 -176 623 -193 881 -39 140 83 253 241 289 403 9
42 20 76 24 76 3 0 61 -12 129 -27 92 -21 122 -32 122 -44 0 -25 -55 -179 -85
-239 -60 -121 -176 -252 -288 -329 -175 -119 -417 -180 -675 -168 -296 13
-507 101 -688 289 -443 457 -444 1441 -3 1897 151 156 330 249 539 280 41 6
86 13 100 15 47 9 295 -4 365 -18z m8968 9 c-20 -118 -22 -324 -13 -1155 9
-820 16 -1059 37 -1197 l6 -43 -152 0 -151 0 7 28 c5 15 7 455 5 977 -2 858
-10 1231 -28 1352 l-7 42 74 4 c127 6 224 3 222 -8z m-1534 -110 c35 -92 734
-1765 838 -2005 25 -58 65 -144 89 -192 24 -48 44 -90 44 -93 0 -3 -72 -5
-160 -5 l-159 0 -16 58 c-36 128 -72 228 -161 440 -50 123 -94 225 -96 227 -1
2 -250 0 -552 -3 l-550 -7 -99 -255 c-54 -140 -111 -304 -127 -365 l-28 -110
-162 -3 c-89 -1 -160 1 -158 5 2 5 24 51 50 103 60 124 841 2115 871 2219 l22
80 130 4 c72 2 143 3 158 3 27 -1 31 -7 66 -101z m-9894 61 c345 -89 592 -326
714 -684 53 -153 72 -267 78 -468 6 -202 -5 -336 -42 -478 -52 -208 -140 -375
-267 -510 -200 -214 -451 -316 -778 -316 -320 0 -560 97 -761 307 -88 93 -135
162 -195 288 -152 321 -176 799 -58 1160 112 341 349 584 669 685 127 40 209
50 380 46 131 -4 178 -9 260 -30z m7800 -25 c220 -61 368 -207 410 -408 19
-87 19 -261 0 -338 -49 -209 -196 -356 -423 -425 l-73 -22 51 -24 c58 -27 130
-95 182 -174 54 -83 164 -297 286 -561 61 -129 128 -272 151 -317 23 -45 41
-84 41 -87 0 -3 -73 -5 -163 -5 l-163 0 -17 73 c-10 39 -47 145 -83 235 -232
582 -354 743 -581 772 -47 6 -193 8 -372 3 l-294 -6 7 -436 c6 -357 15 -561
29 -646 1 -6 -52 -11 -146 -13 l-148 -3 8 28 c5 16 7 453 5 973 -2 850 -10
1244 -28 1367 l-7 43 517 2 c593 3 700 -1 811 -31z m-9403 -108 c2 -71 3 -129
3 -130 -1 -1 -59 3 -130 9 -84 7 -237 8 -433 3 l-304 -7 6 -197 c3 -108 8
-524 12 -926 5 -663 12 -901 30 -1015 l7 -40 -147 0 -146 0 7 98 c10 123 10
177 -1 1215 -7 752 -10 859 -24 864 -17 7 -749 -14 -804 -23 l-38 -6 0 132 0
133 63 -8 c130 -14 1808 2 1824 19 3 3 21 6 39 6 l32 0 4 -127z m-4159 -141
c44 -32 64 -61 33 -49 -19 7 -366 266 -366 273 0 5 229 -149 333 -224z m374
-259 c-7 -7 -87 46 -87 57 0 5 21 -5 46 -21 25 -17 43 -33 41 -36z m44 -30
c13 -16 12 -17 -3 -4 -10 7 -18 15 -18 17 0 8 8 3 21 -13z m1347 -421 c133
-89 242 -167 242 -173 0 -35 -50 -5 -287 171 -142 106 -262 197 -268 203 -20
20 74 -40 313 -201z"/>
<path d="M18511 7178 c-18 -56 -120 -333 -226 -615 l-193 -513 413 0 c227 0
439 3 472 6 l61 7 -205 506 c-113 278 -221 552 -241 609 -20 56 -39 102 -42
102 -3 0 -21 -46 -39 -102z"/>
<path d="M8395 7266 c-367 -72 -610 -367 -666 -812 -15 -119 -7 -381 15 -479
93 -426 333 -679 697 -736 182 -28 406 18 552 115 200 133 333 373 377 681 13
93 13 334 -1 431 -38 278 -155 509 -324 647 -71 57 -194 118 -285 142 -89 22
-277 28 -365 11z"/>
<path d="M15918 7253 l-328 -3 0 -293 c0 -160 3 -357 7 -436 l6 -144 409 7
c301 5 423 11 464 22 124 32 247 120 292 210 47 94 60 266 27 376 -19 66 -77
149 -128 184 -80 54 -232 88 -372 81 -27 -1 -197 -3 -377 -4z"/>
</g>
</svg>
